<?xml version="1.0" encoding="UTF-8"?><svg id="Layer_1" xmlns="http://www.w3.org/2000/svg" viewBox="0 0 358.09 358.09"><defs><style>.cls-1{fill:#fcc015;stroke-width:0px;}</style></defs><path class="cls-1" d="M149.9,113.81l-2.72-6.1c-4.54-10.17-8.18-20.71-10.88-31.51h0c-1.18.49-2.34.99-3.5,1.52-5.1,2.32-7.11,8.52-4.32,13.38l18.33,31.87s.04-.02.06-.03c3.2-1.83,4.54-5.75,3.03-9.12ZM155.74,158.95c1.73-1.98,1.73-4.94-.06-6.88l-28.04-30.42c-7.79-8.45-14.85-17.54-21.1-27.18h0c-.97.82-1.93,1.68-2.88,2.55-4.09,3.76-4.11,10.22-.02,13.99l52.1,47.96s.01-.01.02-.02ZM190.25,126.02l4.57-21.76c2.4-11.45,5.75-22.67,10.01-33.57v-.03c-1.22-.29-2.46-.56-3.7-.81-5.48-1.1-10.73,2.74-11.32,8.3l-5.53,52.12s.03,0,.05,0c2.79.29,5.35-1.52,5.93-4.26ZM117.12,143.4l-4.81-2.78c-9.97-5.75-19.43-12.33-28.28-19.67l-.03-.03c-.67,1.1-1.32,2.2-1.95,3.31-2.76,4.87-.74,11.06,4.38,13.35l33.58,15.03s.02-.04.03-.06c1.51-3.36.29-7.32-2.9-9.16ZM232.06,190.25l22.48,4.72c11.22,2.35,22.22,5.66,32.88,9.87h0c.29-1.23.56-2.47.81-3.71,1.1-5.48-2.74-10.73-8.3-11.32l-52.12-5.53s0,.03,0,.05c-.29,2.79,1.52,5.35,4.26,5.93ZM240.96,214.68l4.81,2.78c9.97,5.75,19.43,12.33,28.28,19.67l.03.03c.67-1.1,1.32-2.2,1.95-3.31,2.76-4.87.74-11.06-4.38-13.35l-33.58-15.03s-.02.04-.03.06c-1.51,3.36-.29,7.32,2.9,9.16ZM126.02,167.83l-22.48-4.72c-11.22-2.35-22.22-5.66-32.88-9.87h0c-.29,1.23-.56,2.47-.81,3.71-1.1,5.48,2.74,10.73,8.3,11.32l52.12,5.53s0-.03,0-.05c.29-2.79-1.52-5.35-4.26-5.93ZM248.07,148.2c10.93-4.88,22.24-8.86,33.81-11.9h0c-.49-1.18-.99-2.35-1.52-3.51-2.32-5.1-8.52-7.11-13.38-4.32l-31.87,18.33s.02.04.03.06c1.83,3.2,5.75,4.54,9.12,3.03l3.79-1.69ZM227.04,168.97c.58,2.74,3.09,4.63,5.88,4.33l22.72-2.41c11.43-1.21,22.93-1.46,34.4-.73-.1-1.26-.22-2.52-.37-3.77-.64-5.56-5.91-9.37-11.38-8.22l-51.26,10.75s0,.03.01.05ZM168.97,131.05c2.74-.58,4.63-3.09,4.33-5.88l-2.41-22.72c-1.21-11.43-1.46-22.93-.73-34.4-1.26.1-2.52.22-3.77.37-5.56.64-9.37,5.91-8.22,11.38l10.75,51.26s.03,0,.05-.01ZM167.83,232.06l-4.84,23.06c-2.31,11.02-5.57,21.81-9.74,32.26v.03c1.22.29,2.46.56,3.7.81,5.48,1.1,10.73-2.74,11.32-8.3l5.53-52.12s-.03,0-.05,0c-2.79-.29-5.35,1.52-5.93,4.26ZM189.11,227.04c-2.74.58-4.63,3.09-4.33,5.88l2.41,22.72c1.21,11.43,1.46,22.93.73,34.4,1.26-.1,2.52-.22,3.77-.37,5.56-.64,9.37-5.91,8.22-11.38l-10.75-51.26s-.03,0-.05.01ZM143.4,240.96l-2.85,4.94c-5.72,9.92-12.28,19.34-19.59,28.15l-.03.03c1.1.67,2.2,1.32,3.31,1.95,4.87,2.76,11.06.74,13.35-4.38l15.03-33.58s-.04-.02-.06-.03c-3.36-1.51-7.32-.29-9.16,2.9ZM208.19,244.27l2.73,6.11c4.53,10.16,8.17,20.7,10.87,31.5h0c1.18-.48,2.34-.98,3.5-1.51,5.1-2.32,7.11-8.52,4.32-13.38l-18.33-31.87s-.04.02-.06.03c-3.2,1.83-4.54,5.75-3.03,9.12ZM254.46,247.08l-52.1-47.96s-.01.01-.02.02c-1.73,1.98-1.73,4.94.06,6.88l28.04,30.42c7.79,8.45,14.85,17.54,21.1,27.18h0c.97-.82,1.93-1.68,2.88-2.55,4.09-3.76,4.11-10.22.02-13.99ZM131.05,189.11c-.58-2.74-3.09-4.63-5.88-4.33l-22.72,2.41c-11.43,1.21-22.93,1.46-34.4.73.1,1.26.22,2.52.37,3.77.64,5.56,5.91,9.37,11.38,8.22l51.26-10.75s0-.03-.01-.05ZM109.66,210.04c-10.81,4.82-22,8.75-33.46,11.75h0c.49,1.18.99,2.35,1.52,3.51,2.32,5.1,8.52,7.11,13.38,4.32l31.87-18.33s-.02-.04-.03-.06c-1.83-3.2-5.75-4.54-9.12-3.03l-4.15,1.85ZM237.13,84.03l.03-.03c-1.1-.67-2.2-1.32-3.31-1.95-4.87-2.76-11.06-.73-13.35,4.38l-15.03,33.58s.04.02.06.03c3.36,1.52,7.32.29,9.16-2.9l2.9-5.02c5.71-9.9,12.25-19.29,19.55-28.07ZM158.95,202.35c-1.98-1.73-4.94-1.73-6.88.06l-30.42,28.04c-8.45,7.79-17.54,14.85-27.18,21.1h0c.83.98,1.69,1.94,2.56,2.89,3.76,4.09,10.22,4.11,13.99.02l47.96-52.1s-.01-.01-.02-.02ZM247.08,103.62l-47.96,52.1s.01.01.02.02c1.98,1.73,4.94,1.73,6.88-.06l30.42-28.04c8.45-7.79,17.54-14.85,27.18-21.1h0c-.83-.98-1.69-1.94-2.56-2.89-3.76-4.09-10.22-4.11-13.99-.02Z"/></svg>